<?xml version="1.0" encoding="utf-8"?>
<!-- Generator: Adobe Illustrator 16.0.0, SVG Export Plug-In . SVG Version: 6.00 Build 0)  -->
<!DOCTYPE svg PUBLIC "-//W3C//DTD SVG 1.1//EN" "http://www.w3.org/Graphics/SVG/1.1/DTD/svg11.dtd">
<svg version="1.1" id="Layer_1" xmlns="http://www.w3.org/2000/svg" xmlns:xlink="http://www.w3.org/1999/xlink" x="0px" y="0px"
	 width="960px" height="560px" viewBox="0 0 960 560" enable-background="new 0 0 960 560" xml:space="preserve">
<g>
	<g>
		
			<linearGradient id="SVGID_1_" gradientUnits="userSpaceOnUse" x1="374.2339" y1="580.0273" x2="374.2339" y2="293.7258" gradientTransform="matrix(0.8775 0.4797 -0.4595 0.8406 225.6792 -157.0801)">
			<stop  offset="0" style="stop-color:#00A613"/>
			<stop  offset="0.1525" style="stop-color:#06950E"/>
			<stop  offset="0.4497" style="stop-color:#146900"/>
			<stop  offset="0.4758" style="stop-color:#116500"/>
			<stop  offset="0.5972" style="stop-color:#075600"/>
			<stop  offset="0.7396" style="stop-color:#024D00"/>
			<stop  offset="0.9526" style="stop-color:#004A00"/>
		</linearGradient>
		<polygon fill="url(#SVGID_1_)" points="328.033,258.645 207.444,479.246 312.682,464.03 356.684,560.824 477.276,340.224 		"/>
		
			<linearGradient id="SVGID_2_" gradientUnits="userSpaceOnUse" x1="319.1108" y1="611.4834" x2="319.1108" y2="325.1819" gradientTransform="matrix(-0.8775 0.4797 0.4595 0.8406 624.4688 -157.0801)">
			<stop  offset="0" style="stop-color:#00A613"/>
			<stop  offset="0.1525" style="stop-color:#06950E"/>
			<stop  offset="0.4497" style="stop-color:#146900"/>
			<stop  offset="0.4758" style="stop-color:#116500"/>
			<stop  offset="0.5972" style="stop-color:#075600"/>
			<stop  offset="0.7396" style="stop-color:#024D00"/>
			<stop  offset="0.9526" style="stop-color:#004A00"/>
		</linearGradient>
		<polygon fill="url(#SVGID_2_)" points="584.938,258.645 705.527,479.246 600.29,464.03 556.288,560.824 435.695,340.224 		"/>
	</g>
	<g>
		
			<linearGradient id="SVGID_3_" gradientUnits="userSpaceOnUse" x1="1134.4463" y1="823.4873" x2="1554.8242" y2="823.4873" gradientTransform="matrix(0 -1 1 0 -367 1554)">
			<stop  offset="0" style="stop-color:#E0B539"/>
			<stop  offset="0.1332" style="stop-color:#DCA828"/>
			<stop  offset="0.3708" style="stop-color:#D48900"/>
			<stop  offset="0.6854" style="stop-color:#D28500"/>
			<stop  offset="1" style="stop-color:#AC5900"/>
		</linearGradient>
		<path fill="url(#SVGID_3_)" d="M456.486-0.824c6.006,0,11.455,11.726,17.332,12.231c5.972,0.519,13.357-10.088,19.17-9.067
			c5.9,1.031,9.237,13.523,14.951,15.049c5.778,1.543,14.9-7.609,20.458-5.588c5.619,2.044,6.711,14.924,12.086,17.437
			c5.401,2.523,15.988-4.9,21.122-1.933c5.162,2.987,3.998,15.87,8.861,19.281c4.873,3.418,16.589-2.058,21.137,1.763
			c4.557,3.829,1.187,16.311,5.395,20.516c4.198,4.205,16.681,0.834,20.513,5.388c3.821,4.554-1.655,16.264,1.764,21.14
			c3.411,4.866,16.29,3.703,19.277,8.857c2.968,5.141-4.459,15.725-1.936,21.13c2.513,5.368,15.401,6.46,17.439,12.075
			c2.028,5.562-7.138,14.687-5.585,20.465c1.522,5.714,14.016,9.044,15.046,14.944c1.018,5.815-9.586,13.201-9.07,19.173
			c0.505,5.876,12.234,11.326,12.234,17.328c0,6.005-11.729,11.458-12.234,17.332c-0.516,5.968,10.088,13.354,9.067,19.17
			c-1.027,5.9-13.527,9.233-15.05,14.944c-1.546,5.779,7.609,14.907,5.585,20.465c-2.037,5.612-14.927,6.715-17.439,12.086
			c-2.517,5.402,4.906,15.989,1.936,21.123c-2.983,5.157-15.866,3.998-19.281,8.857c-3.414,4.876,2.055,16.589-1.76,21.133
			c-3.825,4.561-16.311,1.19-20.52,5.396c-4.205,4.204-0.83,16.688-5.392,20.512c-4.547,3.822-16.26-1.647-21.136,1.768
			c-4.859,3.414-3.7,16.294-8.857,19.274c-5.142,2.971-15.718-4.452-21.123-1.93c-5.372,2.51-6.467,15.396-12.079,17.437
			c-5.558,2.021-14.687-7.131-20.469-5.592c-5.707,1.526-9.04,14.019-14.94,15.06c-5.813,1.015-13.202-9.597-19.17-9.077
			c-5.876,0.505-11.326,12.231-17.332,12.231c-6.005,0-11.455-11.727-17.332-12.231c-5.972-0.52-13.357,10.088-19.169,9.07
			c-5.9-1.034-9.234-13.526-14.948-15.053c-5.775-1.539-14.904,7.613-20.465,5.592c-5.612-2.048-6.708-14.927-12.083-17.437
			c-5.402-2.522-15.989,4.9-21.123,1.93c-5.161-2.984-3.998-15.867-8.861-19.281c-4.873-3.415-16.585,2.058-21.136-1.764
			c-4.558-3.828-1.184-16.308-5.392-20.516c-4.202-4.205-16.684-0.835-20.516-5.389c-3.818-4.551,1.655-16.264-1.764-21.14
			c-3.411-4.866-16.291-3.706-19.278-8.861c-2.967-5.137,4.459-15.721,1.936-21.126c-2.509-5.364-15.395-6.463-17.437-12.079
			c-2.024-5.558,7.131-14.683,5.592-20.458c-1.526-5.71-14.025-9.05-15.06-14.944c-1.014-5.816,9.593-13.202,9.078-19.17
			c-0.509-5.88-12.235-11.326-12.235-17.332c0-6.009,11.726-11.458,12.235-17.335c0.516-5.972-10.092-13.354-9.078-19.173
			c1.038-5.894,13.534-9.23,15.06-14.944c1.54-5.771-7.616-14.9-5.592-20.462c2.045-5.612,14.927-6.71,17.44-12.079
			c2.523-5.405-4.903-15.992-1.933-21.126c2.984-5.161,15.867-3.998,19.278-8.857c3.422-4.876-2.055-16.589,1.764-21.14
			c3.828-4.558,16.311-1.187,20.519-5.392c4.205-4.205,0.831-16.684,5.388-20.513c4.551-3.818,16.264,1.655,21.14-1.763
			c4.862-3.415,3.703-16.297,8.86-19.278c5.138-2.971,15.718,4.456,21.123,1.933c5.368-2.513,6.467-15.395,12.079-17.44
			c5.558-2.021,14.687,7.135,20.461,5.592c5.71-1.526,9.044-14.019,14.944-15.056c5.812-1.018,13.201,9.593,19.169,9.074
			C445.031,10.902,450.48-0.824,456.486-0.824z"/>
		<linearGradient id="SVGID_4_" gradientUnits="userSpaceOnUse" x1="266.4722" y1="209.3643" x2="646.5" y2="209.3643">
			<stop  offset="0" style="stop-color:#E0B971"/>
			<stop  offset="0.0832" style="stop-color:#DEB360"/>
			<stop  offset="0.2476" style="stop-color:#D9A433"/>
			<stop  offset="0.3708" style="stop-color:#D4970E"/>
			<stop  offset="0.6854" style="stop-color:#D28500"/>
			<stop  offset="1" style="stop-color:#AC5900"/>
		</linearGradient>
		<circle fill="url(#SVGID_4_)" cx="456.486" cy="209.366" r="190.014"/>
		
			<linearGradient id="SVGID_5_" gradientUnits="userSpaceOnUse" x1="-1065.2642" y1="490.8857" x2="-696.4839" y2="490.8857" gradientTransform="matrix(0.7071 0.7071 -0.7071 0.7071 1426.457 485.126)">
			<stop  offset="0" style="stop-color:#E0B971"/>
			<stop  offset="0.0832" style="stop-color:#DEB360"/>
			<stop  offset="0.2476" style="stop-color:#D9A433"/>
			<stop  offset="0.3708" style="stop-color:#D4970E"/>
			<stop  offset="0.6854" style="stop-color:#D28500"/>
			<stop  offset="1" style="stop-color:#AC5900"/>
		</linearGradient>
		<path fill="url(#SVGID_5_)" d="M586.868,339.748c-72.009,72.01-188.756,72.01-260.765,0c-72.009-72.008-72.009-188.755,0-260.764
			s188.763-72.009,260.765,0C658.877,150.993,658.877,267.74,586.868,339.748z"/>
		
			<linearGradient id="SVGID_6_" gradientUnits="userSpaceOnUse" x1="975.6738" y1="3438.3027" x2="1296.373" y2="3438.3027" gradientTransform="matrix(-0.7071 -0.7071 0.7071 -0.7071 -1171.4565 3443.874)">
			<stop  offset="0" style="stop-color:#E0B971"/>
			<stop  offset="0.0832" style="stop-color:#DEB360"/>
			<stop  offset="0.2476" style="stop-color:#D9A433"/>
			<stop  offset="0.3708" style="stop-color:#D4970E"/>
			<stop  offset="0.6854" style="stop-color:#D28500"/>
			<stop  offset="1" style="stop-color:#AC5900"/>
		</linearGradient>
		<path fill="url(#SVGID_6_)" d="M343.103,95.983c62.619-62.619,164.147-62.619,226.766,0c62.615,62.619,62.615,164.147,0,226.766
			c-62.623,62.619-164.147,62.619-226.766,0C280.487,260.13,280.487,158.609,343.103,95.983z"/>
		<g>
			
				<text transform="matrix(1 0 0 1 398.395 269.8848)" fill="#973F00" stroke="#973F00" stroke-linecap="round" font-family="'Cambo-Regular'" font-size="226.472">3</text>
		</g>
		<g>
			<polygon fill="#973F00" points="456.486,304.539 461.708,315.123 473.39,316.821 464.937,325.059 466.934,336.693 
				456.486,331.199 446.038,336.693 448.036,325.059 439.582,316.821 451.264,315.123 			"/>
			<g>
				<polygon fill="#973F00" points="404.172,291.216 405.292,301.684 414.552,306.699 404.942,310.999 403.04,321.358 
					395.976,313.546 385.539,314.937 390.785,305.804 386.241,296.31 396.542,298.473 				"/>
				<polygon fill="#973F00" points="508.807,291.216 507.681,301.684 498.423,306.699 508.033,310.999 509.933,321.358 
					516.999,313.546 527.44,314.937 522.188,305.804 526.735,296.31 516.433,298.473 				"/>
			</g>
		</g>
	</g>
</g>
</svg>
