<?xml version="1.0" encoding="utf-8"?>
<!-- Generator: Adobe Illustrator 16.0.0, SVG Export Plug-In . SVG Version: 6.00 Build 0)  -->
<!DOCTYPE svg PUBLIC "-//W3C//DTD SVG 1.1//EN" "http://www.w3.org/Graphics/SVG/1.1/DTD/svg11.dtd">
<svg version="1.1" id="Layer_1" xmlns="http://www.w3.org/2000/svg" xmlns:xlink="http://www.w3.org/1999/xlink" x="0px" y="0px"
	 width="960px" height="560px" viewBox="0 0 960 560" enable-background="new 0 0 960 560" xml:space="preserve">
<g>
	<g>
		
			<linearGradient id="SVGID_1_" gradientUnits="userSpaceOnUse" x1="392.8652" y1="569.252" x2="392.8652" y2="286.9232" gradientTransform="matrix(0.8775 0.4797 -0.4595 0.8406 225.6792 -157.0801)">
			<stop  offset="0" style="stop-color:#FF1413"/>
			<stop  offset="0.1308" style="stop-color:#EE0F0F"/>
			<stop  offset="0.3896" style="stop-color:#C10303"/>
			<stop  offset="0.4497" style="stop-color:#B60000"/>
			<stop  offset="0.4503" style="stop-color:#B60000"/>
			<stop  offset="0.5442" style="stop-color:#A10000"/>
			<stop  offset="0.6481" style="stop-color:#920000"/>
			<stop  offset="0.7701" style="stop-color:#890000"/>
			<stop  offset="0.9526" style="stop-color:#860000"/>
		</linearGradient>
		<polygon fill="url(#SVGID_1_)" points="348.772,262.013 229.855,479.552 333.634,464.548 377.026,560 495.945,342.459 		"/>
		
			<linearGradient id="SVGID_2_" gradientUnits="userSpaceOnUse" x1="304.4756" y1="619.6924" x2="304.4756" y2="337.3636" gradientTransform="matrix(-0.8775 0.4797 0.4595 0.8406 624.4688 -157.0801)">
			<stop  offset="0" style="stop-color:#FF1413"/>
			<stop  offset="0.1308" style="stop-color:#EE0F0F"/>
			<stop  offset="0.3896" style="stop-color:#C10303"/>
			<stop  offset="0.4497" style="stop-color:#B60000"/>
			<stop  offset="0.4503" style="stop-color:#B60000"/>
			<stop  offset="0.5442" style="stop-color:#A10000"/>
			<stop  offset="0.6481" style="stop-color:#920000"/>
			<stop  offset="0.7701" style="stop-color:#890000"/>
			<stop  offset="0.9526" style="stop-color:#860000"/>
		</linearGradient>
		<polygon fill="url(#SVGID_2_)" points="602.112,262.013 721.031,479.552 617.251,464.548 573.86,560 454.94,342.459 		"/>
	</g>
	
		<linearGradient id="SVGID_3_" gradientUnits="userSpaceOnUse" x1="1133.3105" y1="842.4443" x2="1547.8574" y2="842.4443" gradientTransform="matrix(0 -1 1 0 -367 1554)">
		<stop  offset="0" style="stop-color:#FFF67D"/>
		<stop  offset="0.0682" style="stop-color:#FDF06C"/>
		<stop  offset="0.2038" style="stop-color:#F9E03F"/>
		<stop  offset="0.3708" style="stop-color:#F3C900"/>
		<stop  offset="0.6854" style="stop-color:#F1C500"/>
		<stop  offset="1" style="stop-color:#CB9800"/>
	</linearGradient>
	<path fill="url(#SVGID_3_)" d="M475.443,6.143c5.923,0,11.296,11.565,17.092,12.064c5.889,0.509,13.17-9.949,18.904-8.946
		c5.817,1.02,9.108,13.338,14.74,14.845c5.699,1.518,14.694-7.509,20.175-5.514c5.542,2.017,6.621,14.721,11.919,17.192
		c5.328,2.489,15.766-4.831,20.829-1.903c5.092,2.944,3.942,15.647,8.74,19.015c4.804,3.372,16.358-2.028,20.842,1.741
		c4.495,3.773,1.172,16.08,5.318,20.229c4.142,4.147,16.45,0.824,20.229,5.313c3.769,4.49-1.632,16.039,1.74,20.848
		c3.362,4.799,16.065,3.649,19.009,8.734c2.928,5.07-4.396,15.507-1.907,20.837c2.478,5.291,15.186,6.37,17.197,11.905
		c2,5.487-7.037,14.485-5.509,20.183c1.503,5.633,13.82,8.919,14.839,14.737c1.004,5.736-9.455,13.017-8.944,18.906
		c0.497,5.795,12.063,11.168,12.063,17.09c0,5.92-11.566,11.299-12.063,17.089c-0.511,5.888,9.948,13.169,8.938,18.906
		c-1.013,5.817-13.336,9.104-14.839,14.737c-1.522,5.698,7.505,14.699,5.509,20.179c-2.012,5.537-14.72,6.621-17.197,11.919
		c-2.482,5.329,4.836,15.767,1.907,20.83c-2.942,5.087-15.646,3.941-19.015,8.735c-3.366,4.809,2.029,16.357-1.733,20.841
		c-3.774,4.494-16.088,1.171-20.234,5.319c-4.147,4.146-0.818,16.455-5.319,20.229c-4.484,3.769-16.033-1.627-20.842,1.74
		c-4.793,3.367-3.648,16.07-8.734,19.009c-5.069,2.927-15.501-4.392-20.83-1.903c-5.298,2.474-6.376,15.181-11.913,17.193
		c-5.48,1.995-14.481-7.033-20.183-5.515c-5.63,1.508-8.915,13.826-14.732,14.851c-5.734,1.003-13.019-9.461-18.907-8.952
		c-5.793,0.5-11.169,12.065-17.089,12.065c-5.923,0-11.296-11.565-17.093-12.065c-5.889-0.509-13.169,9.95-18.902,8.946
		c-5.819-1.019-9.107-13.337-14.74-14.845c-5.695-1.519-14.696,7.51-20.183,5.515c-5.533-2.018-6.615-14.72-11.912-17.193
		c-5.327-2.488-15.767,4.83-20.831,1.903c-5.088-2.944-3.941-15.647-8.737-19.015c-4.806-3.367-16.357,2.028-20.845-1.74
		c-4.494-3.772-1.168-16.08-5.315-20.229c-4.146-4.148-16.453-0.824-20.232-5.313c-3.766-4.489,1.632-16.038-1.737-20.847
		c-3.364-4.799-16.067-3.653-19.012-8.74c-2.925-5.063,4.397-15.501,1.909-20.831c-2.476-5.292-15.182-6.375-17.196-11.911
		c-1.995-5.482,7.035-14.482,5.514-20.175c-1.504-5.633-13.828-8.924-14.848-14.737c-1.003-5.736,9.459-13.018,8.95-18.906
		c-0.5-5.796-12.064-11.169-12.064-17.089c0-5.927,11.565-11.299,12.064-17.095c0.509-5.889-9.953-13.17-8.95-18.906
		c1.022-5.813,13.344-9.104,14.848-14.738c1.521-5.692-7.509-14.695-5.511-20.177c2.014-5.535,14.72-6.62,17.196-11.911
		c2.488-5.33-4.834-15.772-1.907-20.836c2.944-5.086,15.648-3.942,19.012-8.735c3.372-4.809-2.025-16.357,1.741-20.842
		c3.772-4.493,16.083-1.17,20.23-5.318c4.149-4.148,0.822-16.455,5.317-20.229c4.486-3.769,16.035,1.632,20.845-1.741
		c4.795-3.367,3.65-16.07,8.737-19.009c5.067-2.928,15.501,4.392,20.831,1.903c5.294-2.472,6.376-15.181,11.911-17.192
		c5.481-1.995,14.482,7.032,20.178,5.514c5.633-1.507,8.918-13.825,14.737-14.851c5.733-1.003,13.017,9.461,18.905,8.952
		C464.147,17.708,469.522,6.143,475.443,6.143z"/>
	<linearGradient id="SVGID_4_" gradientUnits="userSpaceOnUse" x1="288.064" y1="213.415" x2="662.8213" y2="213.415">
		<stop  offset="0" style="stop-color:#FFFAB7"/>
		<stop  offset="0.0811" style="stop-color:#FDF4A6"/>
		<stop  offset="0.2414" style="stop-color:#F8E579"/>
		<stop  offset="0.3708" style="stop-color:#F3D751"/>
		<stop  offset="0.6854" style="stop-color:#F1C500"/>
		<stop  offset="1" style="stop-color:#CB9800"/>
	</linearGradient>
	<path fill="url(#SVGID_4_)" d="M662.821,213.417c0,103.486-83.892,187.377-187.378,187.377
		c-103.487,0-187.379-83.892-187.379-187.377c0-103.49,83.892-187.382,187.379-187.382
		C578.93,26.036,662.821,109.927,662.821,213.417z"/>
	
		<linearGradient id="SVGID_5_" gradientUnits="userSpaceOnUse" x1="-1046.438" y1="480.3438" x2="-682.771" y2="480.3438" gradientTransform="matrix(0.7071 0.7071 -0.7071 0.7071 1426.457 485.126)">
		<stop  offset="0" style="stop-color:#FFFAB7"/>
		<stop  offset="0.0811" style="stop-color:#FDF4A6"/>
		<stop  offset="0.2414" style="stop-color:#F8E579"/>
		<stop  offset="0.3708" style="stop-color:#F3D751"/>
		<stop  offset="0.6854" style="stop-color:#F1C500"/>
		<stop  offset="1" style="stop-color:#CB9800"/>
	</linearGradient>
	<path fill="url(#SVGID_5_)" d="M604.018,341.991C533.007,413,417.879,413,346.87,341.991c-71.01-71.011-71.01-186.138,0-257.151
		c71.009-71.009,186.142-71.009,257.148,0C675.026,155.854,675.026,270.98,604.018,341.991z"/>
	
		<linearGradient id="SVGID_6_" gradientUnits="userSpaceOnUse" x1="961.6309" y1="3448.8438" x2="1277.8809" y2="3448.8438" gradientTransform="matrix(-0.7071 -0.7071 0.7071 -0.7071 -1171.4565 3443.874)">
		<stop  offset="0" style="stop-color:#FFFAB7"/>
		<stop  offset="0.0811" style="stop-color:#FDF4A6"/>
		<stop  offset="0.2414" style="stop-color:#F8E579"/>
		<stop  offset="0.3708" style="stop-color:#F3D751"/>
		<stop  offset="0.6854" style="stop-color:#F1C500"/>
		<stop  offset="1" style="stop-color:#CB9800"/>
	</linearGradient>
	<path fill="url(#SVGID_6_)" d="M363.634,101.604c61.749-61.749,161.868-61.749,223.617,0c61.75,61.752,61.75,161.872,0,223.622
		c-61.751,61.75-161.868,61.75-223.617,0C301.884,263.477,301.884,163.362,363.634,101.604z"/>
	<g>
		
			<text transform="matrix(1 0 0 1 418.1587 273.0957)" fill="#B67D1C" stroke="#B67D1C" stroke-linecap="round" font-family="'Cambo-Regular'" font-size="223.3302">1</text>
	</g>
	<g>
		<polygon fill="#B67D1C" points="475.443,307.27 480.594,317.705 492.112,319.382 483.777,327.503 485.747,338.977 
			475.443,333.561 465.139,338.977 467.11,327.503 458.773,319.382 470.292,317.705 		"/>
		<g>
			<polygon fill="#B67D1C" points="423.854,294.132 424.958,304.455 434.09,309.399 424.613,313.64 422.737,323.854 
				415.773,316.149 405.479,317.521 410.654,308.517 406.171,299.151 416.331,301.288 			"/>
			<polygon fill="#B67D1C" points="527.038,294.132 525.93,304.455 516.799,309.399 526.275,313.64 528.148,323.854 
				535.115,316.149 545.411,317.521 540.233,308.517 544.718,299.151 534.558,301.288 			"/>
		</g>
	</g>
</g>
</svg>
