<?xml version="1.0" encoding="utf-8"?>
<!-- Generator: Adobe Illustrator 16.0.0, SVG Export Plug-In . SVG Version: 6.00 Build 0)  -->
<!DOCTYPE svg PUBLIC "-//W3C//DTD SVG 1.1//EN" "http://www.w3.org/Graphics/SVG/1.1/DTD/svg11.dtd">
<svg version="1.1" id="Layer_1" xmlns="http://www.w3.org/2000/svg" xmlns:xlink="http://www.w3.org/1999/xlink" x="0px" y="0px"
	 width="960px" height="560px" viewBox="0 0 960 560" enable-background="new 0 0 960 560" xml:space="preserve">
<g>
	<g>
		
			<linearGradient id="SVGID_1_" gradientUnits="userSpaceOnUse" x1="381.1353" y1="572.1992" x2="381.1353" y2="288.1967" gradientTransform="matrix(0.8775 0.4797 -0.4595 0.8406 225.6792 -157.0801)">
			<stop  offset="0" style="stop-color:#1196D9"/>
			<stop  offset="0.1127" style="stop-color:#1485CA"/>
			<stop  offset="0.3354" style="stop-color:#1C58A3"/>
			<stop  offset="0.4497" style="stop-color:#213F8D"/>
			<stop  offset="0.5347" style="stop-color:#232D8B"/>
			<stop  offset="0.6411" style="stop-color:#251E89"/>
			<stop  offset="0.7659" style="stop-color:#261587"/>
			<stop  offset="0.9526" style="stop-color:#261287"/>
		</linearGradient>
		<polygon fill="url(#SVGID_1_)" points="337.361,257.391 217.739,476.222 322.133,461.13 365.783,557.149 485.408,338.316 		"/>
		
			<linearGradient id="SVGID_2_" gradientUnits="userSpaceOnUse" x1="311.4482" y1="611.9658" x2="311.4482" y2="327.9612" gradientTransform="matrix(-0.8775 0.4797 0.4595 0.8406 624.4688 -157.0801)">
			<stop  offset="0" style="stop-color:#1196D9"/>
			<stop  offset="0.1127" style="stop-color:#1485CA"/>
			<stop  offset="0.3354" style="stop-color:#1C58A3"/>
			<stop  offset="0.4497" style="stop-color:#213F8D"/>
			<stop  offset="0.5347" style="stop-color:#232D8B"/>
			<stop  offset="0.6411" style="stop-color:#251E89"/>
			<stop  offset="0.7659" style="stop-color:#261587"/>
			<stop  offset="0.9526" style="stop-color:#261287"/>
		</linearGradient>
		<polygon fill="url(#SVGID_2_)" points="592.208,257.391 711.833,476.222 607.433,461.13 563.786,557.149 444.161,338.316 		"/>
	</g>
	
		<linearGradient id="SVGID_3_" gradientUnits="userSpaceOnUse" x1="1136.9902" y1="831.7852" x2="1554" y2="831.7852" gradientTransform="matrix(0 -1 1 0 -367 1554)">
		<stop  offset="0" style="stop-color:#E7E7E7"/>
		<stop  offset="0.166" style="stop-color:#D6D6D6"/>
		<stop  offset="0.3708" style="stop-color:#BBBBBB"/>
		<stop  offset="0.6854" style="stop-color:#B9B9B9"/>
		<stop  offset="1" style="stop-color:#939393"/>
	</linearGradient>
	<path fill="url(#SVGID_3_)" d="M464.785,0c5.958,0,11.363,11.634,17.196,12.137c5.92,0.511,13.247-10.009,19.013-8.997
		c5.853,1.022,9.167,13.415,14.831,14.931c5.732,1.529,14.781-7.552,20.295-5.545c5.573,2.027,6.66,14.806,11.984,17.295
		c5.362,2.502,15.864-4.861,20.957-1.914c5.12,2.96,3.966,15.739,8.79,19.124c4.834,3.394,16.459-2.041,20.967,1.752
		c4.521,3.798,1.178,16.178,5.352,20.35c4.165,4.171,16.547,0.828,20.349,5.345c3.791,4.518-1.642,16.133,1.752,20.972
		c3.381,4.824,16.157,3.67,19.124,8.786c2.94,5.096-4.427,15.597-1.924,20.957c2.496,5.327,15.278,6.412,17.3,11.98
		c2.015,5.517-7.077,14.569-5.54,20.301c1.511,5.667,13.902,8.973,14.929,14.823c1.009,5.772-9.513,13.096-8.998,19.02
		c0.498,5.831,12.13,11.235,12.13,17.191c0,5.956-11.632,11.368-12.13,17.191c-0.515,5.924,10.007,13.249,8.991,19.019
		c-1.02,5.852-13.415,9.158-14.929,14.825c-1.53,5.73,7.552,14.786,5.54,20.299c-2.021,5.569-14.808,6.659-17.297,11.989
		c-2.499,5.36,4.864,15.858,1.918,20.953c-2.961,5.117-15.74,3.965-19.124,8.787c-3.388,4.837,2.039,16.454-1.749,20.965
		c-3.795,4.521-16.181,1.179-20.352,5.351c-4.175,4.173-0.827,16.553-5.352,20.35c-4.508,3.791-16.127-1.637-20.967,1.751
		c-4.82,3.387-3.67,16.165-8.787,19.12c-5.1,2.946-15.591-4.417-20.953-1.913c-5.332,2.486-6.411,15.271-11.981,17.294
		c-5.514,2.008-14.569-7.074-20.305-5.547c-5.665,1.517-8.969,13.908-14.821,14.94c-5.766,1.008-13.096-9.518-19.017-9.005
		c-5.829,0.501-11.234,12.134-17.192,12.134s-11.363-11.633-17.193-12.134c-5.924-0.513-13.25,10.008-19.019,9
		c-5.85-1.027-9.157-13.419-14.825-14.936c-5.729-1.527-14.781,7.555-20.301,5.547c-5.567-2.028-6.654-14.808-11.985-17.294
		c-5.359-2.504-15.857,4.859-20.954,1.913c-5.12-2.961-3.963-15.74-8.79-19.126c-4.833-3.387-16.453,2.041-20.967-1.75
		c-4.521-3.797-1.177-16.178-5.349-20.351c-4.171-4.171-16.55-0.829-20.351-5.345c-3.788-4.515,1.642-16.133-1.746-20.971
		c-3.384-4.827-16.167-3.677-19.127-8.793c-2.943-5.095,4.424-15.593,1.917-20.953c-2.486-5.323-15.269-6.413-17.293-11.982
		c-2.008-5.515,7.078-14.569,5.547-20.294c-1.514-5.667-13.913-8.98-14.936-14.825c-1.009-5.771,9.513-13.095,9.002-19.019
		c-0.505-5.831-12.137-11.235-12.137-17.191c0-5.961,11.632-11.365,12.137-17.196c0.511-5.924-10.011-13.247-9.002-19.019
		c1.029-5.845,13.422-9.157,14.936-14.825c1.531-5.725-7.555-14.781-5.547-20.297c2.028-5.569,14.808-6.657,17.297-11.982
		c2.506-5.36-4.861-15.864-1.914-20.957c2.96-5.118,15.74-3.966,19.124-8.788c3.391-4.837-2.039-16.455,1.752-20.967
		c3.794-4.521,16.177-1.179,20.352-5.351c4.168-4.169,0.824-16.55,5.345-20.35c4.514-3.788,16.133,1.642,20.97-1.748
		c4.824-3.387,3.673-16.167,8.787-19.125c5.1-2.945,15.595,4.42,20.957,1.917c5.325-2.489,6.415-15.272,11.982-17.297
		c5.517-2.006,14.569,7.076,20.297,5.547c5.665-1.516,8.971-13.908,14.821-14.938c5.769-1.009,13.095,9.515,19.022,9.003
		C453.421,11.634,458.831,0,464.785,0z"/>
	<linearGradient id="SVGID_4_" gradientUnits="userSpaceOnUse" x1="276.2905" y1="208.5059" x2="653.2754" y2="208.5059">
		<stop  offset="0" style="stop-color:#F0F0F0"/>
		<stop  offset="0.2014" style="stop-color:#DFDFDF"/>
		<stop  offset="0.3708" style="stop-color:#CDCDCD"/>
		<stop  offset="0.6854" style="stop-color:#B9B9B9"/>
		<stop  offset="1" style="stop-color:#939393"/>
	</linearGradient>
	<circle fill="url(#SVGID_4_)" cx="464.783" cy="208.507" r="188.492"/>
	
		<linearGradient id="SVGID_5_" gradientUnits="userSpaceOnUse" x1="-1058.5259" y1="484.4102" x2="-692.7017" y2="484.4102" gradientTransform="matrix(0.7071 0.7071 -0.7071 0.7071 1426.457 485.126)">
		<stop  offset="0" style="stop-color:#F0F0F0"/>
		<stop  offset="0.2014" style="stop-color:#DFDFDF"/>
		<stop  offset="0.3708" style="stop-color:#CDCDCD"/>
		<stop  offset="0.6854" style="stop-color:#B9B9B9"/>
		<stop  offset="1" style="stop-color:#939393"/>
	</linearGradient>
	<path fill="url(#SVGID_5_)" d="M594.122,337.844c-71.433,71.432-187.243,71.432-258.675,0c-71.432-71.431-71.432-187.242,0-258.675
		c71.432-71.432,187.25-71.432,258.675,0C665.553,150.602,665.553,266.413,594.122,337.844z"/>
	
		<linearGradient id="SVGID_6_" gradientUnits="userSpaceOnUse" x1="971.6992" y1="3444.7793" x2="1289.8281" y2="3444.7793" gradientTransform="matrix(-0.7071 -0.7071 0.7071 -0.7071 -1171.4565 3443.874)">
		<stop  offset="0" style="stop-color:#F0F0F0"/>
		<stop  offset="0.2014" style="stop-color:#DFDFDF"/>
		<stop  offset="0.3708" style="stop-color:#CDCDCD"/>
		<stop  offset="0.6854" style="stop-color:#B9B9B9"/>
		<stop  offset="1" style="stop-color:#939393"/>
	</linearGradient>
	<path fill="url(#SVGID_6_)" d="M352.311,96.031c62.117-62.115,162.831-62.115,224.948,0c62.113,62.119,62.113,162.833,0,224.95
		c-62.12,62.115-162.831,62.115-224.948,0C290.193,258.864,290.193,158.155,352.311,96.031z"/>
	<g>
		
			<text transform="matrix(1 0 0 1 407.165 268.541)" fill="#7F7F7F" stroke="#7F7F7F" stroke-linecap="round" font-family="'Cambo-Regular'" font-size="224.657">2</text>
	</g>
	<g>
		<polygon fill="#7F7F7F" points="464.785,302.917 469.968,313.416 481.553,315.102 473.167,323.272 475.148,334.812 
			464.785,329.364 454.42,334.812 456.402,323.272 448.019,315.102 459.604,313.416 		"/>
		<g>
			<polygon fill="#7F7F7F" points="412.89,289.701 413.997,300.085 423.187,305.061 413.654,309.327 411.763,319.601 
				404.76,311.852 394.406,313.23 399.61,304.172 395.099,294.752 405.322,296.902 			"/>
			<polygon fill="#7F7F7F" points="516.686,289.701 515.568,300.085 506.385,305.061 515.922,309.327 517.803,319.601 
				524.809,311.852 535.17,313.23 529.959,304.172 534.471,294.752 524.251,296.902 			"/>
		</g>
	</g>
</g>
</svg>
